# xmcd
#
# Track frame offsets:
#	150
#	17749
#	33044
#	59069
#	84681
#
# Disc length: 1420 seconds
#
# Revision: 0
# Processed by: cddbd v1.5.2PL0 Copyright (c) Steve Scherf et al.
# Submitted via: audiograbber 1.83.01
#
DISCID=38058a05
DTITLE=Timati feat. Snoop Dogg? - Groove On [CDs)
DYEAR=2009
DGENRE=R&B
TTITLE0=Groove On (Radio Edit)
TTITLE1=Groove On (Wolffman and Rob Boskamp Remix)
TTITLE2=Groove On (Dimitri Vegas and Like Mike Drill Riddim Remix)
TTITLE3=Groove On (Nils van Zandt vs Mark Laurenz Remix)Groove On (R
TTITLE4=obert Abigail Brasil Remix)
EXTD=
EXTT0=
EXTT1=
EXTT2=
EXTT3=
EXTT4=
PLAYORDER=
